<svg xmlns="http://www.w3.org/2000/svg" viewBox="0 0 256 256" width="256" height="256">
  <defs>
    <linearGradient id="bg" x1="0" y1="0" x2="1" y2="1">
      <stop offset="0%" stop-color="#5865f2"/>
      <stop offset="100%" stop-color="#4752c4"/>
    </linearGradient>
  </defs>
  <rect width="256" height="256" rx="56" fill="url(#bg)"/>
  <g transform="translate(48,52) scale(6.7)" fill="#ffffff">
    <path d="M21.7 4.3c-.4-.4-1-.4-1.4 0L12 12.6 3.7 4.3c-.4-.4-1-.4-1.4 0s-.4 1 0 1.4l8.3 8.3c.2.2.5.3.7.3s.5-.1.7-.3l8.7-8.3c.4-.4.4-1 0-1.4z"/>
    <path d="M21 10c-.6 0-1 .4-1 1v7c0 .6-.4 1-1 1H5c-.6 0-1-.4-1-1v-7c0-.6-.4-1-1-1s-1 .4-1 1v7c0 1.7 1.3 3 3 3h14c1.7 0 3-1.3 3-3v-7c0-.6-.4-1-1-1z"/>
  </g>
</svg>
